<?xml version="1.0" encoding="UTF-8" standalone="no" ?>
<!DOCTYPE svg PUBLIC "-//W3C//DTD SVG 1.1//EN" "http://www.w3.org/Graphics/SVG/1.1/DTD/svg11.dtd">
<svg xmlns="http://www.w3.org/2000/svg" xmlns:xlink="http://www.w3.org/1999/xlink" version="1.1" width="100" height="100" viewBox="0 0 100 100" xml:space="preserve">
<desc>Created with Fabric.js 4.6.0</desc>
<defs>
</defs>
<g transform="matrix(1 0 0 1 50 50)" id="ay9bCPbqcYtrUpxPslafl"  >
<path style="stroke: rgb(180,41,68); stroke-width: 0; stroke-dasharray: none; stroke-linecap: butt; stroke-dashoffset: 0; stroke-linejoin: miter; stroke-miterlimit: 4; fill: rgb(47,65,75); fill-rule: nonzero; opacity: 1;" vector-effect="non-scaling-stroke"  transform=" translate(0, 0)" d="M -20 -20 L 20 -20 L 20 20 L -20 20 z" stroke-linecap="round" />
</g>
<g transform="matrix(4.6 0 0 0.6 50 30)" id="HDsTEjNawYQlDa94i1VWK"  >
<path style="stroke: rgb(75,167,170); stroke-width: 0; stroke-dasharray: none; stroke-linecap: butt; stroke-dashoffset: 0; stroke-linejoin: miter; stroke-miterlimit: 4; fill: rgb(63,87,100); fill-rule: nonzero; opacity: 1;" vector-effect="non-scaling-stroke"  transform=" translate(0, 0)" d="M -5 -1.46447 C -5 -3.41709 -4.80292 -5 -4.55982 -5 L 4.559810000000001 -5 L 4.559810000000001 -5 C 4.80292 -5 4.99999 -3.41709 4.99999 -1.46447 L 4.99999 1.4644599999999999 L 4.99999 1.4644599999999999 C 4.99999 3.41708 4.802910000000001 4.99999 4.559810000000001 4.99999 L -4.55982 4.99999 L -4.55982 4.99999 C -4.80293 4.99999 -5 3.4170800000000003 -5 1.4644600000000003 z" stroke-linecap="round" />
</g>
<g transform="matrix(4.6 0 0 0.6 50 70)" id="3oUFBNnLvED7v8QzFJvLV"  >
<path style="stroke: rgb(75,167,170); stroke-width: 0; stroke-dasharray: none; stroke-linecap: butt; stroke-dashoffset: 0; stroke-linejoin: miter; stroke-miterlimit: 4; fill: rgb(63,87,100); fill-rule: nonzero; opacity: 1;" vector-effect="non-scaling-stroke"  transform=" translate(0, 0)" d="M -5 -1.46447 C -5 -3.41709 -4.80292 -5 -4.55982 -5 L 4.559810000000001 -5 L 4.559810000000001 -5 C 4.80292 -5 4.99999 -3.41709 4.99999 -1.46447 L 4.99999 1.4644599999999999 L 4.99999 1.4644599999999999 C 4.99999 3.41708 4.802910000000001 4.99999 4.559810000000001 4.99999 L -4.55982 4.99999 L -4.55982 4.99999 C -4.80293 4.99999 -5 3.4170800000000003 -5 1.4644600000000003 z" stroke-linecap="round" />
</g>
<g transform="matrix(0 4.6 -0.6 0 70 50)" id="86Lw5KILHYRKAf-722R10"  >
<path style="stroke: rgb(75,167,170); stroke-width: 0; stroke-dasharray: none; stroke-linecap: butt; stroke-dashoffset: 0; stroke-linejoin: miter; stroke-miterlimit: 4; fill: rgb(63,87,100); fill-rule: nonzero; opacity: 1;" vector-effect="non-scaling-stroke"  transform=" translate(0, 0)" d="M -5 -1.46446 C -5 -3.4170800000000003 -4.79171 -4.99999 -4.53476 -4.99999 L 4.53476 -4.99999 L 4.53476 -4.99999 C 4.7917000000000005 -4.99999 5 -3.4170800000000003 5 -1.4644600000000003 L 5 1.4644699999999995 L 5 1.4644699999999995 C 5 3.4170899999999995 4.79171 5 4.53476 5 L -4.53476 5 L -4.53476 5 C -4.7917000000000005 5 -5 3.41709 -5 1.46447 z" stroke-linecap="round" />
</g>
<g transform="matrix(0 4.6 -0.6 0 30 50)" id="qGwiZvmG53UqP-6zTFnYp"  >
<path style="stroke: rgb(75,167,170); stroke-width: 0; stroke-dasharray: none; stroke-linecap: butt; stroke-dashoffset: 0; stroke-linejoin: miter; stroke-miterlimit: 4; fill: rgb(63,87,100); fill-rule: nonzero; opacity: 1;" vector-effect="non-scaling-stroke"  transform=" translate(0, 0)" d="M -5 -1.46446 C -5 -3.4170800000000003 -4.79171 -4.99999 -4.53476 -4.99999 L 4.53476 -4.99999 L 4.53476 -4.99999 C 4.7917000000000005 -4.99999 5 -3.4170800000000003 5 -1.4644600000000003 L 5 1.4644699999999995 L 5 1.4644699999999995 C 5 3.4170899999999995 4.79171 5 4.53476 5 L -4.53476 5 L -4.53476 5 C -4.7917000000000005 5 -5 3.41709 -5 1.46447 z" stroke-linecap="round" />
</g>
</svg>