<?xml version="1.0" encoding="UTF-8" standalone="no" ?>
<!DOCTYPE svg PUBLIC "-//W3C//DTD SVG 1.1//EN" "http://www.w3.org/Graphics/SVG/1.1/DTD/svg11.dtd">
<svg xmlns="http://www.w3.org/2000/svg" xmlns:xlink="http://www.w3.org/1999/xlink" version="1.1" width="100" height="100" viewBox="0 0 100 100" xml:space="preserve">
<desc>Created with Fabric.js 4.6.0</desc>
<defs>
</defs>
<g transform="matrix(1.7 0 0 1 63 50)" id="ay9bCPbqcYtrUpxPslafl"  >
<path style="stroke: rgb(180,41,68); stroke-width: 0; stroke-dasharray: none; stroke-linecap: butt; stroke-dashoffset: 0; stroke-linejoin: miter; stroke-miterlimit: 4; fill: rgb(47,65,75); fill-rule: nonzero; opacity: 1;" vector-effect="non-scaling-stroke"  transform=" translate(0, 0)" d="M -20 -20 L 20 -20 L 20 20 L -20 20 z" stroke-linecap="round" />
</g>
<g transform="matrix(0 -0.68 1 0 49 16.5)" id="hLSlAWX-l8IYvqNa9LK_i"  >
<path style="stroke: rgb(180,41,68); stroke-width: 0; stroke-dasharray: none; stroke-linecap: butt; stroke-dashoffset: 0; stroke-linejoin: miter; stroke-miterlimit: 4; fill: rgb(47,65,75); fill-rule: nonzero; opacity: 1;" vector-effect="non-scaling-stroke"  transform=" translate(0, 0)" d="M -20 -20 L 20 -20 L 20 20 L -20 20 z" stroke-linecap="round" />
</g>
<g transform="matrix(3.3 0 0 0.6 83.5 30)" id="HDsTEjNawYQlDa94i1VWK"  >
<path style="stroke: rgb(75,167,170); stroke-width: 0; stroke-dasharray: none; stroke-linecap: butt; stroke-dashoffset: 0; stroke-linejoin: miter; stroke-miterlimit: 4; fill: rgb(63,87,100); fill-rule: nonzero; opacity: 1;" vector-effect="non-scaling-stroke"  transform=" translate(0, 0)" d="M -5 -1.46447 C -5 -3.41709 -4.7122 -5 -4.35718 -5 L 4.35717 -5 L 4.35717 -5 C 4.71219 -5 4.99999 -3.41709 4.99999 -1.46447 L 4.99999 1.4644599999999999 L 4.99999 1.4644599999999999 C 4.99999 3.41708 4.7121900000000005 4.99999 4.35717 4.99999 L -4.35718 4.99999 L -4.35718 4.99999 C -4.712199999999999 4.99999 -5 3.4170800000000003 -5 1.4644600000000003 z" stroke-linecap="round" />
</g>
<g transform="matrix(7.3 0 0 0.6 63.5 70)" id="QWMchP5ySUSetuP7Ci2hr"  >
<path style="stroke: rgb(75,167,170); stroke-width: 0; stroke-dasharray: none; stroke-linecap: butt; stroke-dashoffset: 0; stroke-linejoin: miter; stroke-miterlimit: 4; fill: rgb(63,87,100); fill-rule: nonzero; opacity: 1;" vector-effect="non-scaling-stroke"  transform=" translate(0, 0)" d="M -5 -1.46447 C -5 -2.40215 -4.96938 -3.30143 -4.91489 -3.96447 C -4.86039 -4.62751 -4.78648 -5 -4.70941 -5 L 4.7094000000000005 -5 L 4.7094000000000005 -5 C 4.7864700000000004 -5 4.86038 -4.62751 4.91488 -3.96447 C 4.96938 -3.30143 4.99999 -2.40215 4.99999 -1.46447 L 4.99999 1.4644599999999999 L 4.99999 1.4644599999999999 C 4.99999 3.41708 4.869890000000001 4.99999 4.7094000000000005 4.99999 L -4.70941 4.99999 L -4.70941 4.99999 C -4.8699 4.99999 -5 3.4170800000000003 -5 1.4644600000000003 z" stroke-linecap="round" />
</g>
<g transform="matrix(0 7.3 -0.6 0 30 36.5)" id="j5I1LXXPfm6ZV5ZG2ouQ0"  >
<path style="stroke: rgb(75,167,170); stroke-width: 0; stroke-dasharray: none; stroke-linecap: butt; stroke-dashoffset: 0; stroke-linejoin: miter; stroke-miterlimit: 4; fill: rgb(63,87,100); fill-rule: nonzero; opacity: 1;" vector-effect="non-scaling-stroke"  transform=" translate(0, 0)" d="M -5 -1.46447 C -5 -2.40215 -4.96938 -3.30143 -4.91489 -3.96447 C -4.86039 -4.62751 -4.78648 -5 -4.70941 -5 L 4.7094000000000005 -5 L 4.7094000000000005 -5 C 4.7864700000000004 -5 4.86038 -4.62751 4.91488 -3.96447 C 4.96938 -3.30143 4.99999 -2.40215 4.99999 -1.46447 L 4.99999 1.4644599999999999 L 4.99999 1.4644599999999999 C 4.99999 3.41708 4.869890000000001 4.99999 4.7094000000000005 4.99999 L -4.70941 4.99999 L -4.70941 4.99999 C -4.8699 4.99999 -5 3.4170800000000003 -5 1.4644600000000003 z" stroke-linecap="round" />
</g>
<g transform="matrix(0 -3.3 0.6 0 70 16.5)" id="DEkQDArcGRpDJBpDs7lAi"  >
<path style="stroke: rgb(75,167,170); stroke-width: 0; stroke-dasharray: none; stroke-linecap: butt; stroke-dashoffset: 0; stroke-linejoin: miter; stroke-miterlimit: 4; fill: rgb(63,87,100); fill-rule: nonzero; opacity: 1;" vector-effect="non-scaling-stroke"  transform=" translate(0, 0)" d="M -5 -1.46447 C -5 -3.41709 -4.71055 -5 -4.35348 -5 L 4.35348 -5 L 4.35348 -5 C 4.71054 -5 5 -3.41709 5 -1.46447 L 5 1.4644599999999999 L 5 1.4644599999999999 C 5 3.41708 4.71055 4.99999 4.35348 4.99999 L -4.35348 4.99999 L -4.35348 4.99999 C -4.71054 4.99999 -5 3.4170800000000003 -5 1.4644600000000003 z" stroke-linecap="round" />
</g>
</svg>