<?xml version="1.0" encoding="UTF-8" standalone="no" ?>
<!DOCTYPE svg PUBLIC "-//W3C//DTD SVG 1.1//EN" "http://www.w3.org/Graphics/SVG/1.1/DTD/svg11.dtd">
<svg xmlns="http://www.w3.org/2000/svg" xmlns:xlink="http://www.w3.org/1999/xlink" version="1.1" width="100" height="100" viewBox="0 0 100 100" xml:space="preserve">
<desc>Created with Fabric.js 4.6.0</desc>
<defs>
</defs>
<g transform="matrix(2.5 0 0 1 50 50)" id="D4kyXE8BUaQ0-fagymT0m"  >
<path style="stroke: rgb(180,41,68); stroke-width: 0; stroke-dasharray: none; stroke-linecap: butt; stroke-dashoffset: 0; stroke-linejoin: miter; stroke-miterlimit: 4; fill: rgb(47,65,75); fill-rule: nonzero; opacity: 1;" vector-effect="non-scaling-stroke"  transform=" translate(0, 0)" d="M -20 -20 L 20 -20 L 20 20 L -20 20 z" stroke-linecap="round" />
</g>
<g transform="matrix(11.2 0 0 0.6 50 70)" id="3oUFBNnLvED7v8QzFJvLV"  >
<path style="stroke: rgb(75,167,170); stroke-width: 0; stroke-dasharray: none; stroke-linecap: butt; stroke-dashoffset: 0; stroke-linejoin: miter; stroke-miterlimit: 4; fill: rgb(63,87,100); fill-rule: nonzero; opacity: 1;" vector-effect="non-scaling-stroke"  transform=" translate(0, 0)" d="M -5 -1.46447 C -5 -3.41709 -4.9152 -5 -4.8106 -5 L 4.81059 -5 L 4.81059 -5 C 4.91519 -5 4.99999 -3.41709 4.99999 -1.46447 L 4.99999 1.4644599999999999 L 4.99999 1.4644599999999999 C 4.99999 3.41708 4.91519 4.99999 4.81059 4.99999 L -4.8106 4.99999 L -4.8106 4.99999 C -4.9152 4.99999 -5 3.4170800000000003 -5 1.4644600000000003 z" stroke-linecap="round" />
</g>
<g transform="matrix(11.2 0 0 0.6 50 30)" id="fsepXxyqgSPruZhD8SG5-"  >
<path style="stroke: rgb(75,167,170); stroke-width: 0; stroke-dasharray: none; stroke-linecap: butt; stroke-dashoffset: 0; stroke-linejoin: miter; stroke-miterlimit: 4; fill: rgb(63,87,100); fill-rule: nonzero; opacity: 1;" vector-effect="non-scaling-stroke"  transform=" translate(0, 0)" d="M -5 -1.46447 C -5 -3.41709 -4.91501 -5 -4.81017 -5 L 4.81017 -5 L 4.81017 -5 C 4.9150100000000005 -5 5 -3.41709 5 -1.46447 L 5 1.4644599999999999 L 5 1.4644599999999999 C 5 3.41708 4.91501 4.99999 4.81017 4.99999 L -4.81017 4.99999 L -4.81017 4.99999 C -4.9150100000000005 4.99999 -5 3.4170800000000003 -5 1.4644600000000003 z" stroke-linecap="round" />
</g>
</svg>