<?xml version="1.0" encoding="UTF-8" standalone="no" ?>
<!DOCTYPE svg PUBLIC "-//W3C//DTD SVG 1.1//EN" "http://www.w3.org/Graphics/SVG/1.1/DTD/svg11.dtd">
<svg xmlns="http://www.w3.org/2000/svg" xmlns:xlink="http://www.w3.org/1999/xlink" version="1.1" width="100" height="100" viewBox="0 0 100 100" xml:space="preserve">
<desc>Created with Fabric.js 4.6.0</desc>
<defs>
</defs>
<g transform="matrix(4 0 0 1 70 50)" id="ay9bCPbqcYtrUpxPslafl"  >
<path style="stroke: rgb(180,41,68); stroke-width: 0; stroke-dasharray: none; stroke-linecap: butt; stroke-dashoffset: 0; stroke-linejoin: miter; stroke-miterlimit: 4; fill: rgb(47,65,75); fill-rule: nonzero; opacity: 1;" vector-effect="non-scaling-stroke"  transform=" translate(0, 0)" d="M -7.5 -10 L 7.5 -10 L 7.5 10 L -7.5 10 z" stroke-linecap="round" />
</g>
<g transform="matrix(4.5 0 0 0.4 80.5 40)" id="HDsTEjNawYQlDa94i1VWK"  >
<path style="stroke: rgb(75,167,170); stroke-width: 0; stroke-dasharray: none; stroke-linecap: butt; stroke-dashoffset: 0; stroke-linejoin: miter; stroke-miterlimit: 4; fill: rgb(63,87,100); fill-rule: nonzero; opacity: 1;" vector-effect="non-scaling-stroke"  transform=" translate(0, 0)" d="M -5 0.3033 C -5 -2.6256299999999997 -4.79025 -5 -4.53151 -5 L 4.53151 -5 L 4.53151 -5 C 4.79025 -5 5 -2.62563 5 0.3033000000000001 L 5 0.3033000000000001 L 5 0.3033000000000001 C 5 2.8972100000000003 4.81424 5 4.5851 5 L -4.58509 5 L -4.58509 5 C -4.81423 5 -4.99999 2.89722 -4.99999 0.3033000000000001 z" stroke-linecap="round" />
</g>
<g transform="matrix(6.6 0 0 0.4 71 60)" id="QWMchP5ySUSetuP7Ci2hr"  >
<path style="stroke: rgb(75,167,170); stroke-width: 0; stroke-dasharray: none; stroke-linecap: butt; stroke-dashoffset: 0; stroke-linejoin: miter; stroke-miterlimit: 4; fill: rgb(63,87,100); fill-rule: nonzero; opacity: 1;" vector-effect="non-scaling-stroke"  transform=" translate(0, 0)" d="M -5 0.3033 C -5 -2.6256299999999997 -4.8563600000000005 -5 -4.67917 -5 L 4.67917 -5 L 4.67917 -5 C 4.8563600000000005 -5 5 -2.62563 5 0.3033000000000001 L 5 0.3033000000000001 L 5 0.3033000000000001 C 5 2.8972100000000003 4.87279 5 4.71587 5 L -4.71586 5 L -4.71586 5 C -4.8727800000000006 5 -4.99999 2.89722 -4.99999 0.3033000000000001 z" stroke-linecap="round" />
</g>
<g transform="matrix(5.7 0 0 0.4 76.5 50)" id="FAcdu-6Syzd3CsWzawyju"  >
<path style="stroke: rgb(75,167,170); stroke-width: 0; stroke-dasharray: none; stroke-linecap: butt; stroke-dashoffset: 0; stroke-linejoin: miter; stroke-miterlimit: 4; fill: rgb(63,87,100); fill-rule: nonzero; opacity: 1;" vector-effect="non-scaling-stroke"  transform=" translate(0, 0)" d="M -5 0.3033 C -5 -2.6256299999999997 -4.83314 -5 -4.62732 -5 L 4.6273100000000005 -5 L 4.6273100000000005 -5 C 4.83314 -5 4.99999 -2.62563 4.99999 0.3033000000000001 L 4.99999 0.3033000000000001 L 4.99999 0.3033000000000001 C 4.99999 2.8972100000000003 4.85222 4.99999 4.669930000000001 4.99999 L -4.66995 4.99999 L -4.66995 4.99999 C -4.8522300000000005 4.99999 -5.00001 2.8972100000000003 -5.00001 0.3033000000000001 z" stroke-linecap="round" />
</g>
<g transform="matrix(0 -2.67 1 0 50 20)" id="qnA0AIG0vb5bK07X23qRG"  >
<path style="stroke: rgb(180,41,68); stroke-width: 0; stroke-dasharray: none; stroke-linecap: butt; stroke-dashoffset: 0; stroke-linejoin: miter; stroke-miterlimit: 4; fill: rgb(47,65,75); fill-rule: nonzero; opacity: 1;" vector-effect="non-scaling-stroke"  transform=" translate(0, 0)" d="M -7.5 -10 L 7.5 -10 L 7.5 10 L -7.5 10 z" stroke-linecap="round" />
</g>
<g transform="matrix(0 -6.7 0.4 0 40 28.5)" id="KSxdWGH8Y_I_O4HTRu6YM"  >
<path style="stroke: rgb(75,167,170); stroke-width: 0; stroke-dasharray: none; stroke-linecap: butt; stroke-dashoffset: 0; stroke-linejoin: miter; stroke-miterlimit: 4; fill: rgb(63,87,100); fill-rule: nonzero; opacity: 1;" vector-effect="non-scaling-stroke"  transform=" translate(0, 0)" d="M -5 0.3033 C -5 -2.6256299999999997 -4.85723 -5 -4.6811 -5 L 4.681109999999999 -5 L 4.681109999999999 -5 C 4.8572299999999995 -5 5.00001 -2.62563 5.00001 0.3033000000000001 L 5.00001 0.3033000000000001 L 5.00001 0.3033000000000001 C 5.00001 2.8972100000000003 4.87357 4.99999 4.7175899999999995 4.99999 L -4.71757 4.99999 L -4.71757 4.99999 C -4.87355 4.99999 -4.99999 2.8972100000000003 -4.99999 0.3033000000000001 z" stroke-linecap="round" />
</g>
<g transform="matrix(0 -4.4 0.4 0 60 19)" id="R6HSWj_bPaA1rbr78OZNH"  >
<path style="stroke: rgb(75,167,170); stroke-width: 0; stroke-dasharray: none; stroke-linecap: butt; stroke-dashoffset: 0; stroke-linejoin: miter; stroke-miterlimit: 4; fill: rgb(63,87,100); fill-rule: nonzero; opacity: 1;" vector-effect="non-scaling-stroke"  transform=" translate(0, 0)" d="M -5 0.3033 C -5 -2.6256299999999997 -4.78297 -5 -4.51525 -5 L 4.51524 -5 L 4.51524 -5 C 4.78296 -5 4.99999 -2.62563 4.99999 0.3033000000000001 L 4.99999 0.3033000000000001 L 4.99999 0.3033000000000001 C 4.99999 2.8972100000000003 4.80778 4.99999 4.570690000000001 4.99999 L -4.570699999999999 4.99999 L -4.570699999999999 4.99999 C -4.8077999999999985 4.99999 -4.999999999999998 2.8972100000000003 -4.999999999999998 0.3033000000000001 z" stroke-linecap="round" />
</g>
<g transform="matrix(0 -5.5 0.4 0 50 24.5)" id="WvobNMICZGpq8EsBVhwfJ"  >
<path style="stroke: rgb(75,167,170); stroke-width: 0; stroke-dasharray: none; stroke-linecap: butt; stroke-dashoffset: 0; stroke-linejoin: miter; stroke-miterlimit: 4; fill: rgb(63,87,100); fill-rule: nonzero; opacity: 1;" vector-effect="non-scaling-stroke"  transform=" translate(0, 0)" d="M -5 0.3033 C -5 -2.6256299999999997 -4.82857 -5 -4.6171 -5 L 4.61709 -5 L 4.61709 -5 C 4.82856 -5 4.99999 -2.62563 4.99999 0.3033000000000001 L 4.99999 0.3033000000000001 L 4.99999 0.3033000000000001 C 4.99999 2.8972100000000003 4.8481700000000005 4.99999 4.660880000000001 4.99999 L -4.6609 4.99999 L -4.6609 4.99999 C -4.84818 4.99999 -5.00001 2.8972100000000003 -5.00001 0.3033000000000001 z" stroke-linecap="round" />
</g>
</svg>