<?xml version="1.0" encoding="UTF-8" standalone="no" ?>
<!DOCTYPE svg PUBLIC "-//W3C//DTD SVG 1.1//EN" "http://www.w3.org/Graphics/SVG/1.1/DTD/svg11.dtd">
<svg xmlns="http://www.w3.org/2000/svg" xmlns:xlink="http://www.w3.org/1999/xlink" version="1.1" width="100" height="100" viewBox="0 0 100 100" xml:space="preserve">
<desc>Created with Fabric.js 4.6.0</desc>
<defs>
</defs>
<g transform="matrix(1.33 0 0 3 50 30)" id="ay9bCPbqcYtrUpxPslafl"  >
<path style="stroke: rgb(180,41,68); stroke-width: 0; stroke-dasharray: none; stroke-linecap: butt; stroke-dashoffset: 0; stroke-linejoin: miter; stroke-miterlimit: 4; fill: rgb(47,65,75); fill-rule: nonzero; opacity: 1;" vector-effect="non-scaling-stroke"  transform=" translate(0, 0)" d="M -7.5 -10 L 7.5 -10 L 7.5 10 L -7.5 10 z" stroke-linecap="round" />
</g>
<g transform="matrix(2.4 0 0 0.4 50 60)" id="B05Uaacjwh7foncpX1bYr"  >
<path style="stroke: rgb(75,167,170); stroke-width: 0; stroke-dasharray: none; stroke-linecap: butt; stroke-dashoffset: 0; stroke-linejoin: miter; stroke-miterlimit: 4; fill: rgb(63,87,100); fill-rule: nonzero; opacity: 1;" vector-effect="non-scaling-stroke"  transform=" translate(0, 0)" d="M -5 0.3033 C -5 -1.1032199999999999 -4.90604 -2.45214 -4.73878 -3.4467 C -4.57153 -4.44126 -4.34468 -5 -4.10815 -5 L 4.10815 -5 L 4.10815 -5 C 4.34468 -5 4.57153 -4.44126 4.73878 -3.4467 C 4.90603 -2.45214 5 -1.1032199999999999 5 0.3033000000000001 L 5 0.3033000000000001 L 5 0.3033000000000001 C 5 2.8972100000000003 4.64638 4.99999 4.21017 4.99999 L -4.21016 4.99999 L -4.21016 4.99999 C -4.64637 4.99999 -4.99999 2.8972100000000003 -4.99999 0.3033000000000001 z" stroke-linecap="round" />
</g>
<g transform="matrix(0 6.6 -0.4 0 50 29)" id="bkNeylzKOnLpIkbZTRdC_"  >
<path style="stroke: rgb(75,167,170); stroke-width: 0; stroke-dasharray: none; stroke-linecap: butt; stroke-dashoffset: 0; stroke-linejoin: miter; stroke-miterlimit: 4; fill: rgb(63,87,100); fill-rule: nonzero; opacity: 1;" vector-effect="non-scaling-stroke"  transform=" translate(0, 0)" d="M -5 0.3033 C -5 -2.6256299999999997 -4.85581 -5 -4.67795 -5 L 4.67794 -5 L 4.67794 -5 C 4.8558 -5 4.99999 -2.62563 4.99999 0.3033000000000001 L 4.99999 0.3033000000000001 L 4.99999 0.3033000000000001 C 4.99999 2.8972100000000003 4.8723 5 4.71478 5 L -4.71479 5 L -4.71479 5 C -4.87231 5 -5 2.89722 -5 0.3033000000000001 z" stroke-linecap="round" />
</g>
<g transform="matrix(0 6.6 -0.4 0 40 29)" id="uC5e48at88cKJ-eLXatOv"  >
<path style="stroke: rgb(75,167,170); stroke-width: 0; stroke-dasharray: none; stroke-linecap: butt; stroke-dashoffset: 0; stroke-linejoin: miter; stroke-miterlimit: 4; fill: rgb(63,87,100); fill-rule: nonzero; opacity: 1;" vector-effect="non-scaling-stroke"  transform=" translate(0, 0)" d="M -5 0.3033 C -5 -2.6256299999999997 -4.85607 -5 -4.67853 -5 L 4.67853 -5 L 4.67853 -5 C 4.85607 -5 5 -2.62563 5 0.3033000000000001 L 5 0.3033000000000001 L 5 0.3033000000000001 C 5 2.8972100000000003 4.87254 5 4.7153 5 L -4.7153 5 L -4.7153 5 C -4.87254 5 -5 2.89722 -5 0.3033000000000001 z" stroke-linecap="round" />
</g>
<g transform="matrix(0 6.6 -0.4 0 60 29)" id="DCmL9_vY5lU3blxrO0zfh"  >
<path style="stroke: rgb(75,167,170); stroke-width: 0; stroke-dasharray: none; stroke-linecap: butt; stroke-dashoffset: 0; stroke-linejoin: miter; stroke-miterlimit: 4; fill: rgb(63,87,100); fill-rule: nonzero; opacity: 1;" vector-effect="non-scaling-stroke"  transform=" translate(0, 0)" d="M -5 0.3033 C -5 -2.6256299999999997 -4.85555 -5 -4.67737 -5 L 4.67736 -5 L 4.67736 -5 C 4.85555 -5 4.99999 -2.62563 4.99999 0.3033000000000001 L 4.99999 0.3033000000000001 L 4.99999 0.3033000000000001 C 4.99999 2.8972100000000003 4.87206 5 4.71426 5 L -4.71428 5 L -4.71428 5 C -4.8720799999999995 5 -5.00001 2.89722 -5.00001 0.3033000000000001 z" stroke-linecap="round" />
</g>
</svg>