<?xml version="1.0" encoding="UTF-8" standalone="no" ?>
<!DOCTYPE svg PUBLIC "-//W3C//DTD SVG 1.1//EN" "http://www.w3.org/Graphics/SVG/1.1/DTD/svg11.dtd">
<svg xmlns="http://www.w3.org/2000/svg" xmlns:xlink="http://www.w3.org/1999/xlink" version="1.1" width="100" height="100" viewBox="0 0 100 100" xml:space="preserve">
<desc>Created with Fabric.js 4.6.0</desc>
<defs>
</defs>
<g transform="matrix(3.8 0 0 1 68.5 50)" id="ay9bCPbqcYtrUpxPslafl"  >
<path style="stroke: rgb(180,41,68); stroke-width: 0; stroke-dasharray: none; stroke-linecap: butt; stroke-dashoffset: 0; stroke-linejoin: miter; stroke-miterlimit: 4; fill: rgb(47,65,75); fill-rule: nonzero; opacity: 1;" vector-effect="non-scaling-stroke"  transform=" translate(0, 0)" d="M -7.5 -10 L 7.5 -10 L 7.5 10 L -7.5 10 z" stroke-linecap="round" />
</g>
<g transform="matrix(4.2 0 0 0.4 79 40)" id="HDsTEjNawYQlDa94i1VWK"  >
<path style="stroke: rgb(75,167,170); stroke-width: 0; stroke-dasharray: none; stroke-linecap: butt; stroke-dashoffset: 0; stroke-linejoin: miter; stroke-miterlimit: 4; fill: rgb(63,87,100); fill-rule: nonzero; opacity: 1;" vector-effect="non-scaling-stroke"  transform=" translate(0, 0)" d="M -5 0.3033 C -5 -2.6256299999999997 -4.77387 -5 -4.4949200000000005 -5 L 4.494919999999999 -5 L 4.494919999999999 -5 C 4.773869999999999 -5 4.999999999999998 -2.62563 4.999999999999998 0.3033000000000001 L 4.999999999999998 0.3033000000000001 L 4.999999999999998 0.3033000000000001 C 4.999999999999998 2.8972100000000003 4.7997299999999985 5 4.552699999999998 5 L -4.552690000000002 5 L -4.552690000000002 5 C -4.799730000000002 5 -4.999990000000002 2.89722 -4.999990000000002 0.3033000000000001 z" stroke-linecap="round" />
</g>
<g transform="matrix(6.2 0 0 0.4 69 60)" id="QWMchP5ySUSetuP7Ci2hr"  >
<path style="stroke: rgb(75,167,170); stroke-width: 0; stroke-dasharray: none; stroke-linecap: butt; stroke-dashoffset: 0; stroke-linejoin: miter; stroke-miterlimit: 4; fill: rgb(63,87,100); fill-rule: nonzero; opacity: 1;" vector-effect="non-scaling-stroke"  transform=" translate(0, 0)" d="M -5 0.3033 C -5 -2.6256299999999997 -4.84681 -5 -4.65785 -5 L 4.65785 -5 L 4.65785 -5 C 4.84681 -5 5 -2.62563 5 0.3033000000000001 L 5 0.3033000000000001 L 5 0.3033000000000001 C 5 2.8972100000000003 4.86434 5 4.6969899999999996 5 L -4.69698 5 L -4.69698 5 C -4.86433 5 -4.99999 2.89722 -4.99999 0.3033000000000001 z" stroke-linecap="round" />
</g>
<g transform="matrix(5.2 0 0 0.4 74 50)" id="FAcdu-6Syzd3CsWzawyju"  >
<path style="stroke: rgb(75,167,170); stroke-width: 0; stroke-dasharray: none; stroke-linecap: butt; stroke-dashoffset: 0; stroke-linejoin: miter; stroke-miterlimit: 4; fill: rgb(63,87,100); fill-rule: nonzero; opacity: 1;" vector-effect="non-scaling-stroke"  transform=" translate(0, 0)" d="M -5 0.3033 C -5 -2.6256299999999997 -4.81736 -5 -4.59205 -5 L 4.59205 -5 L 4.59205 -5 C 4.81735 -5 5 -2.62563 5 0.3033000000000001 L 5 0.3033000000000001 L 5 0.3033000000000001 C 5 2.8972100000000003 4.83825 4.99999 4.63872 4.99999 L -4.6387100000000006 4.99999 L -4.6387100000000006 4.99999 C -4.838240000000001 4.99999 -4.99999 2.8972100000000003 -4.99999 0.3033000000000001 z" stroke-linecap="round" />
</g>
<g transform="matrix(0 -2.47 1 0 50 21.5)" id="qnA0AIG0vb5bK07X23qRG"  >
<path style="stroke: rgb(180,41,68); stroke-width: 0; stroke-dasharray: none; stroke-linecap: butt; stroke-dashoffset: 0; stroke-linejoin: miter; stroke-miterlimit: 4; fill: rgb(47,65,75); fill-rule: nonzero; opacity: 1;" vector-effect="non-scaling-stroke"  transform=" translate(0, 0)" d="M -7.5 -10 L 7.5 -10 L 7.5 10 L -7.5 10 z" stroke-linecap="round" />
</g>
<g transform="matrix(0 -6.2 0.4 0 40 31)" id="KSxdWGH8Y_I_O4HTRu6YM"  >
<path style="stroke: rgb(75,167,170); stroke-width: 0; stroke-dasharray: none; stroke-linecap: butt; stroke-dashoffset: 0; stroke-linejoin: miter; stroke-miterlimit: 4; fill: rgb(63,87,100); fill-rule: nonzero; opacity: 1;" vector-effect="non-scaling-stroke"  transform=" translate(0, 0)" d="M -5 0.3033 C -5 -2.6256299999999997 -4.84704 -5 -4.65836 -5 L 4.65836 -5 L 4.65836 -5 C 4.84704 -5 5 -2.62563 5 0.3033000000000001 L 5 0.3033000000000001 L 5 0.3033000000000001 C 5 2.8972100000000003 4.86454 5 4.69744 5 L -4.697429999999999 5 L -4.697429999999999 5 C -4.8645299999999985 5 -4.999989999999999 2.89722 -4.999989999999999 0.3033000000000001 z" stroke-linecap="round" />
</g>
<g transform="matrix(0 -4.1 0.4 0 60 20.5)" id="R6HSWj_bPaA1rbr78OZNH"  >
<path style="stroke: rgb(75,167,170); stroke-width: 0; stroke-dasharray: none; stroke-linecap: butt; stroke-dashoffset: 0; stroke-linejoin: miter; stroke-miterlimit: 4; fill: rgb(63,87,100); fill-rule: nonzero; opacity: 1;" vector-effect="non-scaling-stroke"  transform=" translate(0, 0)" d="M -5 0.3033 C -5 -2.6256299999999997 -4.7691 -5 -4.48427 -5 L 4.48427 -5 L 4.48427 -5 C 4.769100000000001 -5 5 -2.62563 5 0.3033000000000001 L 5 0.3033000000000001 L 5 0.3033000000000001 C 5 2.8972100000000003 4.79551 5 4.54326 5 L -4.54326 5 L -4.54326 5 C -4.79551 5 -5 2.89722 -5 0.3033000000000001 z" stroke-linecap="round" />
</g>
<g transform="matrix(0 -5.2 0.4 0 50 26)" id="WvobNMICZGpq8EsBVhwfJ"  >
<path style="stroke: rgb(75,167,170); stroke-width: 0; stroke-dasharray: none; stroke-linecap: butt; stroke-dashoffset: 0; stroke-linejoin: miter; stroke-miterlimit: 4; fill: rgb(63,87,100); fill-rule: nonzero; opacity: 1;" vector-effect="non-scaling-stroke"  transform=" translate(0, 0)" d="M -5 0.3033 C -5 -2.6256299999999997 -4.8157 -5 -4.58835 -5 L 4.58835 -5 L 4.58835 -5 C 4.8157000000000005 -5 5 -2.62563 5 0.3033000000000001 L 5 0.3033000000000001 L 5 0.3033000000000001 C 5 2.8972100000000003 4.83678 5 4.63544 5 L -4.63543 5 L -4.63543 5 C -4.8367700000000005 5 -4.99999 2.89722 -4.99999 0.3033000000000001 z" stroke-linecap="round" />
</g>
</svg>