<?xml version="1.0" encoding="UTF-8" standalone="no" ?>
<!DOCTYPE svg PUBLIC "-//W3C//DTD SVG 1.1//EN" "http://www.w3.org/Graphics/SVG/1.1/DTD/svg11.dtd">
<svg xmlns="http://www.w3.org/2000/svg" xmlns:xlink="http://www.w3.org/1999/xlink" version="1.1" width="100" height="100" viewBox="0 0 100 100" xml:space="preserve">
<desc>Created with Fabric.js 4.6.0</desc>
<defs>
</defs>
<g transform="matrix(4 0 0 1 70 50)" id="ay9bCPbqcYtrUpxPslafl"  >
<path style="stroke: rgb(180,41,68); stroke-width: 0; stroke-dasharray: none; stroke-linecap: butt; stroke-dashoffset: 0; stroke-linejoin: miter; stroke-miterlimit: 4; fill: rgb(47,65,75); fill-rule: nonzero; opacity: 1;" vector-effect="non-scaling-stroke"  transform=" translate(0, 0)" d="M -7.5 -10 L 7.5 -10 L 7.5 10 L -7.5 10 z" stroke-linecap="round" />
</g>
<g transform="matrix(6.6 0 0 0.4 71 60)" id="QWMchP5ySUSetuP7Ci2hr"  >
<path style="stroke: rgb(75,167,170); stroke-width: 0; stroke-dasharray: none; stroke-linecap: butt; stroke-dashoffset: 0; stroke-linejoin: miter; stroke-miterlimit: 4; fill: rgb(63,87,100); fill-rule: nonzero; opacity: 1;" vector-effect="non-scaling-stroke"  transform=" translate(0, 0)" d="M -5 0.3033 C -5 -2.6256299999999997 -4.8563600000000005 -5 -4.67917 -5 L 4.67917 -5 L 4.67917 -5 C 4.8563600000000005 -5 5 -2.62563 5 0.3033000000000001 L 5 0.3033000000000001 L 5 0.3033000000000001 C 5 2.8972100000000003 4.87279 5 4.71587 5 L -4.71586 5 L -4.71586 5 C -4.8727800000000006 5 -4.99999 2.89722 -4.99999 0.3033000000000001 z" stroke-linecap="round" />
</g>
<g transform="matrix(4.5 0 0 0.4 80.5 40)" id="J8Eqc1w-VdTBcx5YBIcRw"  >
<path style="stroke: rgb(75,167,170); stroke-width: 0; stroke-dasharray: none; stroke-linecap: butt; stroke-dashoffset: 0; stroke-linejoin: miter; stroke-miterlimit: 4; fill: rgb(63,87,100); fill-rule: nonzero; opacity: 1;" vector-effect="non-scaling-stroke"  transform=" translate(0, 0)" d="M -5 0.3033 C -5 -2.6256299999999997 -4.78777 -5 -4.5259599999999995 -5 L 4.525970000000001 -5 L 4.525970000000001 -5 C 4.787770000000001 -5 5.000010000000001 -2.62563 5.000010000000001 0.3033000000000001 L 5.000010000000001 0.3033000000000001 L 5.000010000000001 0.3033000000000001 C 5.000010000000001 2.8972100000000003 4.812050000000001 5 4.580200000000001 5 L -4.580169999999999 5 L -4.580169999999999 5 C -4.812029999999999 5 -4.999979999999999 2.89722 -4.999979999999999 0.3033000000000001 z" stroke-linecap="round" />
</g>
<g transform="matrix(0 -3.87 1 0 50 29)" id="qnA0AIG0vb5bK07X23qRG"  >
<path style="stroke: rgb(180,41,68); stroke-width: 0; stroke-dasharray: none; stroke-linecap: butt; stroke-dashoffset: 0; stroke-linejoin: miter; stroke-miterlimit: 4; fill: rgb(47,65,75); fill-rule: nonzero; opacity: 1;" vector-effect="non-scaling-stroke"  transform=" translate(0, 0)" d="M -7.5 -10 L 7.5 -10 L 7.5 10 L -7.5 10 z" stroke-linecap="round" />
</g>
<g transform="matrix(5.6 0 0 0.4 76 50)" id="FAcdu-6Syzd3CsWzawyju"  >
<path style="stroke: rgb(75,167,170); stroke-width: 0; stroke-dasharray: none; stroke-linecap: butt; stroke-dashoffset: 0; stroke-linejoin: miter; stroke-miterlimit: 4; fill: rgb(63,87,100); fill-rule: nonzero; opacity: 1;" vector-effect="non-scaling-stroke"  transform=" translate(0, 0)" d="M -5 0.3033 C -5 -2.6256299999999997 -4.83027 -5 -4.62091 -5 L 4.620899999999999 -5 L 4.620899999999999 -5 C 4.830269999999999 -5 4.999989999999999 -2.62563 4.999989999999999 0.3033000000000001 L 4.999989999999999 0.3033000000000001 L 4.999989999999999 0.3033000000000001 C 4.999989999999999 2.8972100000000003 4.849679999999998 4.99999 4.664259999999999 4.99999 L -4.664270000000002 4.99999 L -4.664270000000002 4.99999 C -4.849690000000002 4.99999 -5.000000000000002 2.8972100000000003 -5.000000000000002 0.3033000000000001 z" stroke-linecap="round" />
</g>
<g transform="matrix(0 -5.5 0.4 0 50 24.5)" id="WvobNMICZGpq8EsBVhwfJ"  >
<path style="stroke: rgb(75,167,170); stroke-width: 0; stroke-dasharray: none; stroke-linecap: butt; stroke-dashoffset: 0; stroke-linejoin: miter; stroke-miterlimit: 4; fill: rgb(63,87,100); fill-rule: nonzero; opacity: 1;" vector-effect="non-scaling-stroke"  transform=" translate(0, 0)" d="M -5 0.3033 C -5 -2.6256299999999997 -4.82857 -5 -4.6171 -5 L 4.61709 -5 L 4.61709 -5 C 4.82856 -5 4.99999 -2.62563 4.99999 0.3033000000000001 L 4.99999 0.3033000000000001 L 4.99999 0.3033000000000001 C 4.99999 2.8972100000000003 4.8481700000000005 4.99999 4.660880000000001 4.99999 L -4.6609 4.99999 L -4.6609 4.99999 C -4.84818 4.99999 -5.00001 2.8972100000000003 -5.00001 0.3033000000000001 z" stroke-linecap="round" />
</g>
<g transform="matrix(0 -6.5 0.4 0 40 29)" id="KSxdWGH8Y_I_O4HTRu6YM"  >
<path style="stroke: rgb(75,167,170); stroke-width: 0; stroke-dasharray: none; stroke-linecap: butt; stroke-dashoffset: 0; stroke-linejoin: miter; stroke-miterlimit: 4; fill: rgb(63,87,100); fill-rule: nonzero; opacity: 1;" vector-effect="non-scaling-stroke"  transform=" translate(0, 0)" d="M -5 0.3033 C -5 -2.6256299999999997 -4.85459 -5 -4.67522 -5 L 4.67522 -5 L 4.67522 -5 C 4.85459 -5 5 -2.62563 5 0.3033000000000001 L 5 0.3033000000000001 L 5 0.3033000000000001 C 5 2.8972100000000003 4.87122 4.99999 4.71237 4.99999 L -4.71236 4.99999 L -4.71236 4.99999 C -4.8712100000000005 4.99999 -4.99999 2.8972100000000003 -4.99999 0.3033000000000001 z" stroke-linecap="round" />
</g>
<g transform="matrix(0 -4.5 0.4 0 60 19.5)" id="R6HSWj_bPaA1rbr78OZNH"  >
<path style="stroke: rgb(75,167,170); stroke-width: 0; stroke-dasharray: none; stroke-linecap: butt; stroke-dashoffset: 0; stroke-linejoin: miter; stroke-miterlimit: 4; fill: rgb(63,87,100); fill-rule: nonzero; opacity: 1;" vector-effect="non-scaling-stroke"  transform=" translate(0, 0)" d="M -5 0.3033 C -5 -2.6256299999999997 -4.78764 -5 -4.52568 -5 L 4.52568 -5 L 4.52568 -5 C 4.787640000000001 -5 5 -2.62563 5 0.3033000000000001 L 5 0.3033000000000001 L 5 0.3033000000000001 C 5 2.8972100000000003 4.81193 4.99999 4.57993 4.99999 L -4.57993 4.99999 L -4.57993 4.99999 C -4.81193 4.99999 -5 2.8972100000000003 -5 0.3033000000000001 z" stroke-linecap="round" />
</g>
</svg>