<?xml version="1.0" encoding="UTF-8" standalone="no" ?>
<!DOCTYPE svg PUBLIC "-//W3C//DTD SVG 1.1//EN" "http://www.w3.org/Graphics/SVG/1.1/DTD/svg11.dtd">
<svg xmlns="http://www.w3.org/2000/svg" xmlns:xlink="http://www.w3.org/1999/xlink" version="1.1" width="100" height="100" viewBox="0 0 100 100" xml:space="preserve">
<desc>Created with Fabric.js 4.6.0</desc>
<defs>
</defs>
<g transform="matrix(6.67 0 0 1 50 50)" id="ay9bCPbqcYtrUpxPslafl"  >
<path style="stroke: rgb(180,41,68); stroke-width: 0; stroke-dasharray: none; stroke-linecap: butt; stroke-dashoffset: 0; stroke-linejoin: miter; stroke-miterlimit: 4; fill: rgb(47,65,75); fill-rule: nonzero; opacity: 1;" vector-effect="non-scaling-stroke"  transform=" translate(0, 0)" d="M -7.5 -10 L 7.5 -10 L 7.5 10 L -7.5 10 z" stroke-linecap="round" />
</g>
<g transform="matrix(4.6 0 0 0.4 81 60)" id="QWMchP5ySUSetuP7Ci2hr"  >
<path style="stroke: rgb(75,167,170); stroke-width: 0; stroke-dasharray: none; stroke-linecap: butt; stroke-dashoffset: 0; stroke-linejoin: miter; stroke-miterlimit: 4; fill: rgb(63,87,100); fill-rule: nonzero; opacity: 1;" vector-effect="non-scaling-stroke"  transform=" translate(0, 0)" d="M -5 0.3033 C -5 -2.6256299999999997 -4.7931 -5 -4.53789 -5 L 4.53788 -5 L 4.53788 -5 C 4.793100000000001 -5 4.99999 -2.62563 4.99999 0.3033000000000001 L 4.99999 0.3033000000000001 L 4.99999 0.3033000000000001 C 4.99999 2.8972100000000003 4.81676 5 4.590730000000001 5 L -4.59075 5 L -4.59075 5 C -4.81678 5 -5.00001 2.89722 -5.00001 0.3033000000000001 z" stroke-linecap="round" />
</g>
<g transform="matrix(4.5 0 0 0.4 80.5 40)" id="J8Eqc1w-VdTBcx5YBIcRw"  >
<path style="stroke: rgb(75,167,170); stroke-width: 0; stroke-dasharray: none; stroke-linecap: butt; stroke-dashoffset: 0; stroke-linejoin: miter; stroke-miterlimit: 4; fill: rgb(63,87,100); fill-rule: nonzero; opacity: 1;" vector-effect="non-scaling-stroke"  transform=" translate(0, 0)" d="M -5 0.3033 C -5 -2.6256299999999997 -4.78777 -5 -4.5259599999999995 -5 L 4.525970000000001 -5 L 4.525970000000001 -5 C 4.787770000000001 -5 5.000010000000001 -2.62563 5.000010000000001 0.3033000000000001 L 5.000010000000001 0.3033000000000001 L 5.000010000000001 0.3033000000000001 C 5.000010000000001 2.8972100000000003 4.812050000000001 5 4.580200000000001 5 L -4.580169999999999 5 L -4.580169999999999 5 C -4.812029999999999 5 -4.999979999999999 2.89722 -4.999979999999999 0.3033000000000001 z" stroke-linecap="round" />
</g>
<g transform="matrix(4.6 0 0 0.4 20 60)" id="RpTKQ0LdaVEPSJKBxE4IB"  >
<path style="stroke: rgb(75,167,170); stroke-width: 0; stroke-dasharray: none; stroke-linecap: butt; stroke-dashoffset: 0; stroke-linejoin: miter; stroke-miterlimit: 4; fill: rgb(63,87,100); fill-rule: nonzero; opacity: 1;" vector-effect="non-scaling-stroke"  transform=" translate(0, 0)" d="M -5 0.3033 C -5 -2.6256299999999997 -4.7931 -5 -4.53789 -5 L 4.53788 -5 L 4.53788 -5 C 4.793100000000001 -5 4.99999 -2.62563 4.99999 0.3033000000000001 L 4.99999 0.3033000000000001 L 4.99999 0.3033000000000001 C 4.99999 2.8972100000000003 4.81676 5 4.590730000000001 5 L -4.59075 5 L -4.59075 5 C -4.81678 5 -5.00001 2.89722 -5.00001 0.3033000000000001 z" stroke-linecap="round" />
</g>
<g transform="matrix(4.5 0 0 0.4 19.5 40)" id="ZEdsBRfZ3Rbt5R3DMeN8M"  >
<path style="stroke: rgb(75,167,170); stroke-width: 0; stroke-dasharray: none; stroke-linecap: butt; stroke-dashoffset: 0; stroke-linejoin: miter; stroke-miterlimit: 4; fill: rgb(63,87,100); fill-rule: nonzero; opacity: 1;" vector-effect="non-scaling-stroke"  transform=" translate(0, 0)" d="M -5 0.3033 C -5 -2.6256299999999997 -4.78777 -5 -4.5259599999999995 -5 L 4.525970000000001 -5 L 4.525970000000001 -5 C 4.787770000000001 -5 5.000010000000001 -2.62563 5.000010000000001 0.3033000000000001 L 5.000010000000001 0.3033000000000001 L 5.000010000000001 0.3033000000000001 C 5.000010000000001 2.8972100000000003 4.812050000000001 5 4.580200000000001 5 L -4.580169999999999 5 L -4.580169999999999 5 C -4.812029999999999 5 -4.999979999999999 2.89722 -4.999979999999999 0.3033000000000001 z" stroke-linecap="round" />
</g>
<g transform="matrix(0 -6.67 1 0 50 50)" id="qnA0AIG0vb5bK07X23qRG"  >
<path style="stroke: rgb(180,41,68); stroke-width: 0; stroke-dasharray: none; stroke-linecap: butt; stroke-dashoffset: 0; stroke-linejoin: miter; stroke-miterlimit: 4; fill: rgb(47,65,75); fill-rule: nonzero; opacity: 1;" vector-effect="non-scaling-stroke"  transform=" translate(0, 0)" d="M -7.5 -10 L 7.5 -10 L 7.5 10 L -7.5 10 z" stroke-linecap="round" />
</g>
<g transform="matrix(10.8 0 0 0.4 50 50)" id="FAcdu-6Syzd3CsWzawyju"  >
<path style="stroke: rgb(75,167,170); stroke-width: 0; stroke-dasharray: none; stroke-linecap: butt; stroke-dashoffset: 0; stroke-linejoin: miter; stroke-miterlimit: 4; fill: rgb(63,87,100); fill-rule: nonzero; opacity: 1;" vector-effect="non-scaling-stroke"  transform=" translate(0, 0)" d="M -5 0.3033 C -5 -2.6256299999999997 -4.91181 -5 -4.80302 -5 L 4.8030100000000004 -5 L 4.8030100000000004 -5 C 4.9118 -5 4.99999 -2.62563 4.99999 0.3033000000000001 L 4.99999 0.3033000000000001 L 4.99999 0.3033000000000001 C 4.99999 2.8972100000000003 4.92189 4.99999 4.82554 4.99999 L -4.82555 4.99999 L -4.82555 4.99999 C -4.9219 4.99999 -5 2.8972100000000003 -5 0.3033000000000001 z" stroke-linecap="round" />
</g>
<g transform="matrix(0 -10.7 0.4 0 50 50.5)" id="WvobNMICZGpq8EsBVhwfJ"  >
<path style="stroke: rgb(75,167,170); stroke-width: 0; stroke-dasharray: none; stroke-linecap: butt; stroke-dashoffset: 0; stroke-linejoin: miter; stroke-miterlimit: 4; fill: rgb(63,87,100); fill-rule: nonzero; opacity: 1;" vector-effect="non-scaling-stroke"  transform=" translate(0, 0)" d="M -5 0.3033 C -5 -2.6256299999999997 -4.91098 -5 -4.80117 -5 L 4.80117 -5 L 4.80117 -5 C 4.91098 -5 5 -2.62563 5 0.3033000000000001 L 5 0.3033000000000001 L 5 0.3033000000000001 C 5 2.8972100000000003 4.92116 4.99999 4.82391 4.99999 L -4.82391 4.99999 L -4.82391 4.99999 C -4.9211599999999995 4.99999 -5 2.8972100000000003 -5 0.3033000000000001 z" stroke-linecap="round" />
</g>
<g transform="matrix(0 -4.5 0.4 0 60 19.5)" id="R6HSWj_bPaA1rbr78OZNH"  >
<path style="stroke: rgb(75,167,170); stroke-width: 0; stroke-dasharray: none; stroke-linecap: butt; stroke-dashoffset: 0; stroke-linejoin: miter; stroke-miterlimit: 4; fill: rgb(63,87,100); fill-rule: nonzero; opacity: 1;" vector-effect="non-scaling-stroke"  transform=" translate(0, 0)" d="M -5 0.3033 C -5 -2.6256299999999997 -4.78764 -5 -4.52568 -5 L 4.52568 -5 L 4.52568 -5 C 4.787640000000001 -5 5 -2.62563 5 0.3033000000000001 L 5 0.3033000000000001 L 5 0.3033000000000001 C 5 2.8972100000000003 4.81193 4.99999 4.57993 4.99999 L -4.57993 4.99999 L -4.57993 4.99999 C -4.81193 4.99999 -5 2.8972100000000003 -5 0.3033000000000001 z" stroke-linecap="round" />
</g>
<g transform="matrix(0 -4.5 0.4 0 40 19.5)" id="8w1iFvv0VPd27NySYK06t"  >
<path style="stroke: rgb(75,167,170); stroke-width: 0; stroke-dasharray: none; stroke-linecap: butt; stroke-dashoffset: 0; stroke-linejoin: miter; stroke-miterlimit: 4; fill: rgb(63,87,100); fill-rule: nonzero; opacity: 1;" vector-effect="non-scaling-stroke"  transform=" translate(0, 0)" d="M -5 0.3033 C -5 -2.6256299999999997 -4.78764 -5 -4.52568 -5 L 4.52568 -5 L 4.52568 -5 C 4.787640000000001 -5 5 -2.62563 5 0.3033000000000001 L 5 0.3033000000000001 L 5 0.3033000000000001 C 5 2.8972100000000003 4.81193 4.99999 4.57993 4.99999 L -4.57993 4.99999 L -4.57993 4.99999 C -4.81193 4.99999 -5 2.8972100000000003 -5 0.3033000000000001 z" stroke-linecap="round" />
</g>
<g transform="matrix(0 -4.5 0.4 0 60 80.5)" id="LhARG6Hl9IkESBEcCxAkN"  >
<path style="stroke: rgb(75,167,170); stroke-width: 0; stroke-dasharray: none; stroke-linecap: butt; stroke-dashoffset: 0; stroke-linejoin: miter; stroke-miterlimit: 4; fill: rgb(63,87,100); fill-rule: nonzero; opacity: 1;" vector-effect="non-scaling-stroke"  transform=" translate(0, 0)" d="M -5 0.3033 C -5 -2.6256299999999997 -4.78764 -5 -4.52568 -5 L 4.52568 -5 L 4.52568 -5 C 4.787640000000001 -5 5 -2.62563 5 0.3033000000000001 L 5 0.3033000000000001 L 5 0.3033000000000001 C 5 2.8972100000000003 4.81193 4.99999 4.57993 4.99999 L -4.57993 4.99999 L -4.57993 4.99999 C -4.81193 4.99999 -5 2.8972100000000003 -5 0.3033000000000001 z" stroke-linecap="round" />
</g>
<g transform="matrix(0 -4.5 0.4 0 40 80.5)" id="C-LEKsZPm6nSQnoixRVTZ"  >
<path style="stroke: rgb(75,167,170); stroke-width: 0; stroke-dasharray: none; stroke-linecap: butt; stroke-dashoffset: 0; stroke-linejoin: miter; stroke-miterlimit: 4; fill: rgb(63,87,100); fill-rule: nonzero; opacity: 1;" vector-effect="non-scaling-stroke"  transform=" translate(0, 0)" d="M -5 0.3033 C -5 -2.6256299999999997 -4.78764 -5 -4.52568 -5 L 4.52568 -5 L 4.52568 -5 C 4.787640000000001 -5 5 -2.62563 5 0.3033000000000001 L 5 0.3033000000000001 L 5 0.3033000000000001 C 5 2.8972100000000003 4.81193 4.99999 4.57993 4.99999 L -4.57993 4.99999 L -4.57993 4.99999 C -4.81193 4.99999 -5 2.8972100000000003 -5 0.3033000000000001 z" stroke-linecap="round" />
</g>
</svg>