<?xml version="1.0" encoding="UTF-8" standalone="no" ?>
<!DOCTYPE svg PUBLIC "-//W3C//DTD SVG 1.1//EN" "http://www.w3.org/Graphics/SVG/1.1/DTD/svg11.dtd">
<svg xmlns="http://www.w3.org/2000/svg" xmlns:xlink="http://www.w3.org/1999/xlink" version="1.1" width="100" height="100" viewBox="0 0 100 100" xml:space="preserve">
<desc>Created with Fabric.js 4.6.0</desc>
<defs>
</defs>
<g transform="matrix(0.75 0 0 1 85 50)" id="ay9bCPbqcYtrUpxPslafl"  >
<path style="stroke: rgb(180,41,68); stroke-width: 0; stroke-dasharray: none; stroke-linecap: butt; stroke-dashoffset: 0; stroke-linejoin: miter; stroke-miterlimit: 4; fill: rgb(47,65,75); fill-rule: nonzero; opacity: 1;" vector-effect="non-scaling-stroke"  transform=" translate(0, 0)" d="M -20 -20 L 20 -20 L 20 20 L -20 20 z" stroke-linecap="round" />
</g>
<g transform="matrix(3 0 0 0.6 89 30)" id="HDsTEjNawYQlDa94i1VWK"  >
<path style="stroke: rgb(75,167,170); stroke-width: 0; stroke-dasharray: none; stroke-linecap: butt; stroke-dashoffset: 0; stroke-linejoin: miter; stroke-miterlimit: 4; fill: rgb(63,87,100); fill-rule: nonzero; opacity: 1;" vector-effect="non-scaling-stroke"  transform=" translate(0, 0)" d="M -5 -1.46447 C -5 -3.41709 -4.68342 -5 -4.29289 -5 L 4.29289 -5 L 4.29289 -5 C 4.68341 -5 5 -3.41709 5 -1.46447 L 5 1.4644599999999999 L 5 1.4644599999999999 C 5 3.41708 4.68342 4.99999 4.29289 4.99999 L -4.29289 4.99999 L -4.29289 4.99999 C -4.68341 4.99999 -5 3.4170800000000003 -5 1.4644600000000003 z" stroke-linecap="round" />
</g>
<g transform="matrix(3 0 0 0.6 88 70)" id="QWMchP5ySUSetuP7Ci2hr"  >
<path style="stroke: rgb(75,167,170); stroke-width: 0; stroke-dasharray: none; stroke-linecap: butt; stroke-dashoffset: 0; stroke-linejoin: miter; stroke-miterlimit: 4; fill: rgb(63,87,100); fill-rule: nonzero; opacity: 1;" vector-effect="non-scaling-stroke"  transform=" translate(0, 0)" d="M -5 -1.46447 C -5 -3.41709 -4.68342 -5 -4.29289 -5 L 4.29289 -5 L 4.29289 -5 C 4.68341 -5 5 -3.41709 5 -1.46447 L 5 1.4644599999999999 L 5 1.4644599999999999 C 5 3.41708 4.68342 4.99999 4.29289 4.99999 L -4.29289 4.99999 L -4.29289 4.99999 C -4.68341 4.99999 -5 3.4170800000000003 -5 1.4644600000000003 z" stroke-linecap="round" />
</g>
<g transform="matrix(2.34 0 0 2.34 50 50)" id="zlKVzLXl2VMzBkiH5p6Zg"  >
<path style="stroke: rgb(178,108,178); stroke-width: 5; stroke-dasharray: none; stroke-linecap: butt; stroke-dashoffset: 0; stroke-linejoin: miter; stroke-miterlimit: 4; fill: rgb(191,133,191); fill-rule: nonzero; opacity: 1;" vector-effect="non-scaling-stroke"  transform=" translate(0, 0)" d="M -12.82772 -7.38538 C -12.82772 -10.3911 -10.3911 -12.82772 -7.38538 -12.82772 L 7.38537 -12.82772 L 7.38537 -12.82772 C 10.39109 -12.82772 12.82771 -10.3911 12.82771 -7.38538 L 12.82771 7.38537 L 12.82771 7.38537 C 12.82771 10.39109 10.39109 12.82771 7.38537 12.82771 L -7.38538 12.82771 L -7.38538 12.82771 C -10.3911 12.82771 -12.82772 10.39109 -12.82772 7.38537 z" stroke-linecap="round" />
</g>
<g transform="matrix(1.15 0 0 1.15 50 50)" id="tJIUc8xdPJB7oGZ8KvSAw"  >
<path style="stroke: rgb(178,108,178); stroke-width: 1; stroke-dasharray: none; stroke-linecap: butt; stroke-dashoffset: 0; stroke-linejoin: miter; stroke-miterlimit: 4; fill: rgb(178,108,178); fill-rule: nonzero; opacity: 1;" vector-effect="non-scaling-stroke"  transform=" translate(-13, -13)" d="M 16.48335 0 L 16.441180000000003 2.54967 C 17.893060000000002 3.0279599999999998 19.211640000000003 3.80056 20.326200000000004 4.79676 L 22.516650000000002 3.4833499999999997 L 21.20324 5.67379 C 22.199450000000002 6.78835 22.97205 8.10693 23.45034 9.558810000000001 L 26 9.51664 L 23.77046 10.75517 C 23.92093 11.47996 24.00001 12.230789999999999 24.00001 12.99999 C 24.00001 13.76918 23.92093 14.52002 23.77046 15.244810000000001 L 26 16.483340000000002 L 23.45034 16.441170000000003 C 22.97205 17.893060000000002 22.19945 19.211640000000003 21.20324 20.326190000000004 L 22.516650000000002 22.516630000000003 L 20.326210000000003 21.20322 C 19.211650000000002 22.199420000000003 17.89307 22.97203 16.441190000000002 23.45032 L 16.48336 25.99998 L 15.24483 23.77044 C 14.52004 23.92091 13.769210000000001 23.99999 13.00001 23.99999 C 12.23082 23.99999 11.47998 23.92091 10.755189999999999 23.77044 L 9.516659999999998 25.99998 L 9.558829999999999 23.45032 C 8.106939999999998 22.97203 6.788359999999999 22.19942 5.673809999999999 21.20322 L 3.4833699999999985 22.516630000000003 L 4.796779999999998 20.326180000000004 C 3.8005799999999983 19.211630000000003 3.027969999999998 17.893050000000006 2.5496899999999982 16.441160000000004 L 0.000019999999998354667 16.483330000000002 L 2.2295699999999985 15.244790000000002 C 2.0790999999999986 14.520010000000003 2.0000199999999984 13.769170000000003 2.0000199999999984 12.99998 C 2.0000199999999984 12.23079 2.079099999999998 11.47995 2.2295699999999985 10.75517 L 0.000019999999998354667 9.51663 L 2.5496899999999982 9.5588 C 3.027979999999998 8.106919999999999 3.8005799999999983 6.78834 4.796789999999998 5.67378 L 3.483369999999998 3.48333 L 5.673819999999997 4.79675 C 6.788369999999997 3.8005500000000003 8.106949999999998 3.02794 9.558839999999996 2.54965 L 9.516669999999996 -0.000019999999999686935 L 10.755209999999996 2.2295300000000005 C 11.479989999999997 2.0790600000000006 12.230829999999996 1.9999800000000005 13.000019999999996 1.9999800000000005 C 13.769209999999996 1.9999800000000005 14.520049999999996 2.0790600000000006 15.244829999999997 2.2295300000000005 z" stroke-linecap="round" />
</g>
</svg>