<?xml version="1.0" encoding="UTF-8" standalone="no" ?>
<!DOCTYPE svg PUBLIC "-//W3C//DTD SVG 1.1//EN" "http://www.w3.org/Graphics/SVG/1.1/DTD/svg11.dtd">
<svg xmlns="http://www.w3.org/2000/svg" xmlns:xlink="http://www.w3.org/1999/xlink" version="1.1" width="100" height="100" viewBox="0 0 100 100" xml:space="preserve">
<desc>Created with Fabric.js 4.6.0</desc>
<defs>
</defs>
<g transform="matrix(2.27 0 0 1.1 83 50)" id="ay9bCPbqcYtrUpxPslafl"  >
<path style="stroke: rgb(180,41,68); stroke-width: 0; stroke-dasharray: none; stroke-linecap: butt; stroke-dashoffset: 0; stroke-linejoin: miter; stroke-miterlimit: 4; fill: rgb(47,65,75); fill-rule: nonzero; opacity: 1;" vector-effect="non-scaling-stroke"  transform=" translate(0, 0)" d="M -7.5 -10 L 7.5 -10 L 7.5 10 L -7.5 10 z" stroke-linecap="round" />
</g>
<g transform="matrix(3.6 0 0 0.4 85.09 40)" id="HDsTEjNawYQlDa94i1VWK"  >
<path style="stroke: rgb(75,167,170); stroke-width: 0; stroke-dasharray: none; stroke-linecap: butt; stroke-dashoffset: 0; stroke-linejoin: miter; stroke-miterlimit: 4; fill: rgb(63,87,100); fill-rule: nonzero; opacity: 1;" vector-effect="non-scaling-stroke"  transform=" translate(0, 0)" d="M -5 0.3033 C -5 -2.6256299999999997 -4.73621 -5 -4.41081 -5 L 4.41081 -5 L 4.41081 -5 C 4.73621 -5 5 -2.62563 5 0.3033000000000001 L 5 0.3033000000000001 L 5 0.3033000000000001 C 5 2.8972100000000003 4.76638 5 4.47821 5 L -4.4782 5 L -4.4782 5 C -4.76638 5 -4.99999 2.89722 -4.99999 0.3033000000000001 z" stroke-linecap="round" />
</g>
<g transform="matrix(3.6 0 0 0.4 85.09 60)" id="QWMchP5ySUSetuP7Ci2hr"  >
<path style="stroke: rgb(75,167,170); stroke-width: 0; stroke-dasharray: none; stroke-linecap: butt; stroke-dashoffset: 0; stroke-linejoin: miter; stroke-miterlimit: 4; fill: rgb(63,87,100); fill-rule: nonzero; opacity: 1;" vector-effect="non-scaling-stroke"  transform=" translate(0, 0)" d="M -5 0.3033 C -5 -2.6256299999999997 -4.73621 -5 -4.41081 -5 L 4.41081 -5 L 4.41081 -5 C 4.73621 -5 5 -2.62563 5 0.3033000000000001 L 5 0.3033000000000001 L 5 0.3033000000000001 C 5 2.8972100000000003 4.76638 5 4.47821 5 L -4.4782 5 L -4.4782 5 C -4.76638 5 -4.99999 2.89722 -4.99999 0.3033000000000001 z" stroke-linecap="round" />
</g>
<g transform="matrix(3.6 0 0 0.4 85 50)" id="FAcdu-6Syzd3CsWzawyju"  >
<path style="stroke: rgb(75,167,170); stroke-width: 0; stroke-dasharray: none; stroke-linecap: butt; stroke-dashoffset: 0; stroke-linejoin: miter; stroke-miterlimit: 4; fill: rgb(63,87,100); fill-rule: nonzero; opacity: 1;" vector-effect="non-scaling-stroke"  transform=" translate(0, 0)" d="M -5 0.3033 C -5 -2.6256299999999997 -4.73618 -5 -4.41074 -5 L 4.410750000000001 -5 L 4.410750000000001 -5 C 4.7361900000000015 -5 5.000010000000001 -2.62563 5.000010000000001 0.3033000000000001 L 5.000010000000001 0.3033000000000001 L 5.000010000000001 0.3033000000000001 C 5.000010000000001 2.8972100000000003 4.766370000000001 5 4.478160000000002 5 L -4.4781299999999975 5 L -4.4781299999999975 5 C -4.766339999999998 5 -4.999979999999997 2.89722 -4.999979999999997 0.3033000000000001 z" stroke-linecap="round" />
</g>
<g transform="matrix(1.5 0 0 1.5 50 50)" id="RkLolmu2B-DjF47v9Mfzh"  >
<path style="stroke: rgb(234,94,94); stroke-width: 6; stroke-dasharray: none; stroke-linecap: butt; stroke-dashoffset: 0; stroke-linejoin: miter; stroke-miterlimit: 4; fill: rgb(229,56,56); fill-rule: nonzero; opacity: 1;" vector-effect="non-scaling-stroke"  transform=" translate(0, 0)" d="M 0 -18 C 9.936 -18 18 -9.936 18 0 C 18 9.936 9.936 18 0 18 C -9.936 18 -18 9.936 -18 0 C -18 -9.936 -9.936 -18 0 -18 z" stroke-linecap="round" />
</g>
<g transform="matrix(1 0 0 1 50 50)" id="Ywrn7GBVWuZBqt0GdyfA9"  >
<path style="stroke: rgb(234,94,94); stroke-width: 0; stroke-dasharray: none; stroke-linecap: butt; stroke-dashoffset: 0; stroke-linejoin: miter; stroke-miterlimit: 4; fill: rgb(234,94,94); fill-rule: nonzero; opacity: 1;" vector-effect="non-scaling-stroke"  transform=" translate(-14, -14)" d="M 11.99993 0.84853 C 11.99993 0.3799 12.37983 0 12.848460000000001 0 L 15.1514 0 C 15.62003 0 15.99993 0.3799 15.99993 0.84853 L 15.99993 3.1816700000000004 C 20.46951 4.0037400000000005 23.99623 7.53045 24.8183 12.00004 L 27.151400000000002 12.00004 C 27.620030000000003 12.00004 27.999930000000003 12.37994 27.999930000000003 12.84857 L 27.999930000000003 15.15151 C 27.999930000000003 15.62014 27.620030000000003 16.00004 27.151400000000002 16.00004 L 24.81829 16.00004 C 23.99622 20.46962 20.46951 23.99633 15.99993 24.818399999999997 L 15.99993 27.151469999999996 C 15.99993 27.620099999999997 15.620030000000002 27.999999999999996 15.1514 27.999999999999996 L 12.848460000000001 27.999999999999996 C 12.379830000000002 27.999999999999996 11.99993 27.620099999999997 11.99993 27.151469999999996 L 11.99993 24.818399999999997 C 7.530350000000001 23.996329999999997 4.003640000000001 20.46962 3.1815700000000007 16.00004 L 0.8485300000000007 16.00004 C 0.3799000000000007 16.00004 6.661338147750939e-16 15.62014 6.661338147750939e-16 15.151509999999998 L 6.661338147750939e-16 12.848569999999999 C 6.661338147750939e-16 12.37994 0.3799000000000007 12.000039999999998 0.8485300000000007 12.000039999999998 L 3.1815600000000006 12.000039999999998 C 4.00363 7.530449999999998 7.530340000000001 4.003739999999999 11.99993 3.1816699999999987 z" stroke-linecap="round" />
</g>
</svg>